<?xml version="1.0" encoding="UTF-8"?>
<svg width="52px" height="52px" viewBox="0 0 52 52" version="1.1" xmlns="http://www.w3.org/2000/svg" xmlns:xlink="http://www.w3.org/1999/xlink">
    <!-- Generator: Sketch 46.2 (44496) - http://www.bohemiancoding.com/sketch -->
    <title>icon/iconWorksSW</title>
    <desc>Created with Sketch.</desc>
    <defs></defs>
    <g id="Page-1" stroke="none" stroke-width="1" fill="none" fill-rule="evenodd">
        <g id="portfolio" transform="translate(-516.000000, -324.000000)" fill="#FFFFFF">
            <g id="icon/iconWorks" transform="translate(498.000000, 306.000000)">
                <g id="component/iconWorks_4">
                    <path d="M33.1517086,47.8063091 C31.9116571,47.004071 30.7563854,46.0614635 29.7081884,44.9908691 C29.3218139,44.5962386 28.6886842,44.5895459 28.2940538,44.9759205 C27.8994234,45.362295 27.8927307,45.9954246 28.2791052,46.390055 C29.5084848,47.6457034 30.8722691,48.7414418 32.340443,49.6606304 L28.1676853,59.1983623 C27.7249531,60.2103218 28.1864029,61.3895824 29.1983623,61.8323147 C30.2103218,62.2750469 31.3895824,61.8135971 31.8323147,60.8016377 L35.9161439,51.4671708 C38.449018,52.4675227 41.1824811,53 44,53 C46.8175047,53 49.5509671,52.4675312 52.0838566,51.467172 L56.1676853,60.8016377 C56.6104176,61.8135971 57.7896782,62.2750469 58.8016377,61.8323147 C59.8135971,61.3895824 60.2750469,60.2103218 59.8323147,59.1983623 L55.6595562,49.6606287 C57.1251639,48.743045 58.4867567,47.6495221 59.7144786,46.3966056 C60.1010166,46.0021353 60.0945862,45.369003 59.7001159,44.982465 C59.3056456,44.595927 58.6725132,44.6023574 58.2859752,44.9968277 C57.2393148,46.0649671 56.0860303,47.005563 54.8482905,47.8063072 L47.6646293,31.3865101 C47.2612742,30.4645556 46.5252299,29.7285113 45.6032753,29.3251561 C45.1373387,29.1213089 44.6536686,29.0133031 44.1743203,28.9925082 C45.197262,28.9041846 46,28.045837 46,27 L46,24 C46,22.8954305 45.1045695,22 44,22 C42.8954305,22 42,22.8954305 42,24 L42,27 C42,28.0463036 42.8034543,28.9049503 43.8270487,28.992626 C42.3508445,29.0576031 40.9676088,29.9413944 40.3353707,31.3865101 L33.1517086,47.8063091 Z M36.7183779,49.6334932 L44,32.9897855 L51.2816227,49.6334945 C48.9983038,50.5256253 46.5371037,51 44,51 C41.4628848,51 39.0016837,50.5256176 36.7183779,49.6334932 Z M22,18 L66,18 C68.209139,18 70,19.790861 70,22 L70,66 C70,68.209139 68.209139,70 66,70 L22,70 C19.790861,70 18,68.209139 18,66 L18,22 L18,22 C18,19.790861 19.790861,18 22,18 L22,18 Z" id="Combined-Shape"></path>
                </g>
            </g>
        </g>
    </g>
</svg>