<?xml version="1.0" encoding="UTF-8"?>
<svg width="72px" height="48px" viewBox="0 0 72 48" version="1.1" xmlns="http://www.w3.org/2000/svg" xmlns:xlink="http://www.w3.org/1999/xlink">
    <!-- Generator: Sketch 46.2 (44496) - http://www.bohemiancoding.com/sketch -->
    <title>icon/iconWorkseEC</title>
    <desc>Created with Sketch.</desc>
    <defs></defs>
    <g id="Page-1" stroke="none" stroke-width="1" fill="none" fill-rule="evenodd">
        <g id="portfolio" transform="translate(-772.000000, -334.000000)" fill="#FFFFFF">
            <g id="icon/iconWorks" transform="translate(764.000000, 314.000000)">
                <g id="component/iconWorks_2">
                    <path d="M20.9908537,26.552173 L78.4326848,26.552173 C79.2932745,26.552173 79.9909203,27.2498188 79.9909203,28.1104085 C79.9909203,28.2641976 79.9681538,28.4171395 79.9233612,28.5642609 L72.7956224,51.9752914 L72.7956224,51.9752914 C72.3961444,53.2873752 71.1858187,54.1840577 69.8142697,54.1840577 L27.0861722,54.1840577 L27.3996909,55.6053308 L68.8434205,55.6053308 C69.7040102,55.6053308 70.401656,56.2926206 70.401656,57.1404355 C70.401656,57.9882505 69.7040102,58.6755402 68.8434205,58.6755402 L24.887737,58.6755402 L17.0335558,23.0702094 L9.55823552,23.0702094 C8.69764581,23.0702094 8,22.3829196 8,21.5351047 C8,20.6872898 8.69764581,20 9.55823552,20 L19.5455096,20 L20.9908537,26.552173 Z M34.575277,68 C32.4238027,68 30.6796882,66.2817755 30.6796882,64.1622382 C30.6796882,62.0427009 32.4238027,60.3244765 34.575277,60.3244765 C36.7267513,60.3244765 38.4708658,62.0427009 38.4708658,64.1622382 C38.4708658,66.2817755 36.7267513,68 34.575277,68 Z M61.0652809,68 C58.9138066,68 57.1696921,66.2817755 57.1696921,64.1622382 C57.1696921,62.0427009 58.9138066,60.3244765 61.0652809,60.3244765 C63.2167551,60.3244765 64.9608697,62.0427009 64.9608697,64.1622382 C64.9608697,66.2817755 63.2167551,68 61.0652809,68 Z" id="Combined-Shape"></path>
                </g>
            </g>
        </g>
    </g>
</svg>