<?xml version="1.0" encoding="UTF-8"?>
<svg width="72px" height="42px" viewBox="0 0 72 42" version="1.1" xmlns="http://www.w3.org/2000/svg" xmlns:xlink="http://www.w3.org/1999/xlink">
    <!-- Generator: Sketch 46.2 (44496) - http://www.bohemiancoding.com/sketch -->
    <title>icon/iconWorksEE</title>
    <desc>Created with Sketch.</desc>
    <defs></defs>
    <g id="Page-1" stroke="none" stroke-width="1" fill="none" fill-rule="evenodd">
        <g id="portfolio" transform="translate(-506.000000, -210.000000)" fill="#FCFCFC">
            <g id="icon/iconWorks" transform="translate(498.000000, 187.000000)">
                <g id="component/iconWorks_1">
                    <path d="M10.1176471,23 L48.2352941,23 C49.4048383,23 50.3529412,23.9481029 50.3529412,25.1176471 L50.3529412,35.6 L8,35.6 L8,25.1176471 L8,25.1176471 C8,23.9481029 8.94810288,23 10.1176471,23 Z M8,37.7 L50.3529412,37.7 L50.3529412,50.3 L8,50.3 L8,37.7 Z M9.69411765,65 C8.75848231,65 8,64.2948485 8,63.425 L8,52.4 L50.3529412,52.4 L50.3529412,63.425 C50.3529412,64.2948485 49.5944589,65 48.6588235,65 L9.69411765,65 Z M13.2941176,31.4 C14.4636618,31.4 15.4117647,30.459798 15.4117647,29.3 C15.4117647,28.140202 14.4636618,27.2 13.2941176,27.2 C12.1245735,27.2 11.1764706,28.140202 11.1764706,29.3 C11.1764706,30.459798 12.1245735,31.4 13.2941176,31.4 Z M13.2941176,46.1 C14.4636618,46.1 15.4117647,45.159798 15.4117647,44 C15.4117647,42.840202 14.4636618,41.9 13.2941176,41.9 C12.1245735,41.9 11.1764706,42.840202 11.1764706,44 C11.1764706,45.159798 12.1245735,46.1 13.2941176,46.1 Z M13.2941176,60.8 C14.4636618,60.8 15.4117647,59.859798 15.4117647,58.7 C15.4117647,57.540202 14.4636618,56.6 13.2941176,56.6 C12.1245735,56.6 11.1764706,57.540202 11.1764706,58.7 C11.1764706,59.859798 12.1245735,60.8 13.2941176,60.8 Z M60.9411765,23 L77.8823529,23 L77.8823529,23 C79.0518971,23 80,23.9481029 80,25.1176471 L80,60.8 L58.8235294,60.8 L58.8235294,25.1176471 C58.8235294,23.9481029 59.7716323,23 60.9411765,23 L60.9411765,23 Z M58.8235294,62.9 L80,62.9 C80,64.059798 79.059798,65 77.9,65 L60.9235294,65 C59.7637314,65 58.8235294,64.059798 58.8235294,62.9 Z M62,35.6 L62,37.7 L66.2352941,37.7 L66.2352941,35.6 L62,35.6 Z M62,39.8 L62,41.9 L66.2352941,41.9 L66.2352941,39.8 L62,39.8 Z M62,44 L62,46.1 L66.2352941,46.1 L66.2352941,44 L62,44 Z M64.1176471,31.4 C65.2871912,31.4 66.2352941,30.459798 66.2352941,29.3 C66.2352941,28.140202 65.2871912,27.2 64.1176471,27.2 C62.9481029,27.2 62,28.140202 62,29.3 C62,30.459798 62.9481029,31.4 64.1176471,31.4 Z" id="icon/iconWorks_1"></path>
                </g>
            </g>
        </g>
    </g>
</svg>