<?xml version="1.0" encoding="UTF-8"?>
<svg width="72px" height="49px" viewBox="0 0 72 49" version="1.1" xmlns="http://www.w3.org/2000/svg" xmlns:xlink="http://www.w3.org/1999/xlink">
    <!-- Generator: Sketch 46.2 (44496) - http://www.bohemiancoding.com/sketch -->
    <title>icon/iconWorksCE</title>
    <desc>Created with Sketch.</desc>
    <defs></defs>
    <g id="Page-1" stroke="none" stroke-width="1" fill="none" fill-rule="evenodd">
        <g id="portfolio" transform="translate(-778.000000, -206.000000)" fill-rule="nonzero" fill="#FDFDFF">
            <g id="icon/iconWorks" transform="translate(770.000000, 187.000000)">
                <g id="component/iconWorks_3">
                    <path d="M53.4153846,19 L53.4153846,36.8181818 L15.2440497,36.8181818 L15.2440497,66.1359331 L65.3904577,66.1359331 L65.3904577,59.0909091 L66.7076923,59.0909091 L66.7076923,65.7727273 C66.7076923,68 66.7076923,68 64.4923077,68 L15.7538462,68 C13.5384615,68 13.5384615,68 13.5384615,65.7727273 L13.5384615,35.7045455 L8,23.4545455 C8,19 8,19 10.2153846,19 L53.4153846,19 Z M77.7846154,54.6363636 L60.0615385,54.6363636 C57.8461538,54.6363636 57.8461538,54.6363636 57.8461538,52.4090909 L57.8461538,21.2272727 C57.8461538,19 57.8461538,19 60.0615385,19 L77.7846154,19 C80,19 80,19 80,21.2272727 L80,52.4090909 C80,54.6363636 80,54.6363636 77.7846154,54.6363636 Z M78.5296153,22.97828 L59.3566881,22.97828 L59.3566881,52.8233409 L78.5296153,52.8233409 L78.5296153,22.97828 Z M31.2615385,23.4545455 L32.3692308,27.9090909 L47.8769231,27.9090909 L48.9846154,23.4545455 L31.2615385,23.4545455 Z" id="icon/iconWorks_0" transform="translate(44.000000, 43.500000) scale(-1, 1) rotate(-180.000000) translate(-44.000000, -43.500000) "></path>
                </g>
            </g>
        </g>
    </g>
</svg>